<svg width="84" height="22" viewBox="0 0 84 22" fill="none" xmlns="http://www.w3.org/2000/svg">
<mask id="mask0_29_688" style="mask-type:luminance" maskUnits="userSpaceOnUse" x="5" y="0" width="75" height="19">
<path d="M79.2631 0H5V19H79.2631V0Z" fill="white"/>
</mask>
<g mask="url(#mask0_29_688)">
<path d="M30.1887 9.0119C32.9392 9.38739 33.8801 12.4664 32.8668 14.9447C31.4191 18.3993 26.7868 19 23.602 18.8498C20.9963 18.6996 18.6077 18.2491 19.1143 14.8696L22.1544 0.675923C22.8058 0.600824 23.5296 0.450627 24.2534 0.375528C27.5106 0.0751326 34.8934 -0.150164 34.3144 5.10675C34.0973 7.35972 32.143 8.11071 30.4058 8.8617C30.261 8.9368 30.1887 8.9368 30.1887 9.0119ZM25.0496 7.50992C26.7868 7.88542 30.3334 7.43482 30.0439 4.88146C29.8268 3.00399 27.0039 3.22928 25.7734 3.37948C25.701 3.45458 25.6287 3.60478 25.6287 3.75498C25.4839 4.35577 24.9048 6.83403 24.9772 7.28462C24.9772 7.35972 25.0496 7.43482 25.0496 7.50992ZM24.181 10.5139C23.8915 12.091 23.3848 13.7431 23.2401 15.3202C23.3125 15.6206 23.602 15.6957 23.8915 15.6957C25.701 15.8459 28.741 15.3202 28.9582 13.0672C29.1753 10.2886 25.9906 10.4388 24.181 10.5139Z" fill="black"/>
<path d="M49.5868 18.8499L53.423 0.826185C53.5678 0.675984 55.5945 0.450688 55.9564 0.375589C58.2726 0.225391 61.7469 0.150293 63.7012 1.50207C66.1621 3.15425 66.0174 6.60879 64.6421 8.93686C62.6878 12.3163 58.6345 13.0673 55.0878 12.6918C54.7983 13.9685 54.6535 15.3203 54.2916 16.5969C54.0745 17.423 53.8573 18.174 53.0611 18.5495C52.9887 18.6246 52.5545 18.7748 52.4821 18.7748H49.5868V18.8499ZM58.2002 3.45464C57.983 3.45464 57.3316 3.45464 57.2592 3.60484L56.1735 9.01196C56.2459 9.91314 57.9107 9.68785 58.4897 9.61275C60.2269 9.31235 61.6021 8.03567 61.7469 6.1582C61.8916 3.67994 60.1545 3.30445 58.2002 3.45464Z" fill="black"/>
<path d="M50.1659 4.8063L48.7906 4.05531C45.0268 2.55333 41.5525 4.13041 40.322 8.18576C38.7296 13.2174 41.5525 16.8972 46.6192 15.0948L48.284 14.1186C47.8497 15.245 47.9221 17.3478 47.0535 18.1739C46.0401 19.0751 43.5068 19.1502 42.2039 19C32.2153 18.3241 33.9525 2.70353 42.6382 0.300365C44.5925 -0.225326 48.7183 -0.225326 50.2383 1.35175C51.2516 2.32804 50.4554 3.67981 50.1659 4.8063Z" fill="black"/>
<path d="M72.3869 8.78649C71.0116 7.13435 69.4193 5.78257 67.5374 4.80628C68.2612 2.85371 71.7355 -0.0751426 72.8936 3.07901C73.6174 4.88138 73.0383 7.13435 72.3869 8.78649Z" fill="black"/>
<path d="M10.7905 8.78655C9.63239 7.05929 7.82286 5.85771 6.1581 4.80633C6.73715 3.07906 9.84954 0.300404 11.2248 2.62846C12.0934 4.05534 11.8038 6.45851 11.2248 7.96046C11.2248 8.11066 10.9353 8.86165 10.7905 8.78655Z" fill="black"/>
<path d="M12.7448 4.13049L12.8895 4.88148L12.7448 5.78267V4.13049Z" fill="black"/>
<path d="M73.1831 1.87757C73.1831 1.87757 75.9336 4.05544 72.5317 10.2886C70.9393 13.0673 66.524 15.0199 66.524 15.0199C66.524 15.0199 68.2612 18.925 71.9526 17.1226C75.9336 15.1701 77.6707 12.5416 78.1774 12.0159C79.2631 10.6641 80.0593 8.33606 77.6707 5.70761C75.6441 3.37955 73.6174 1.80247 73.1831 1.87757Z" fill="black"/>
<path d="M11.5867 1.87757C11.5867 1.87757 14.3372 4.05544 10.9353 10.2886C9.41525 13.0673 5 15.0199 5 15.0199C5 15.0199 6.73715 18.925 10.4286 17.1226C14.4096 15.1701 16.1467 12.5416 16.6534 12.0159C17.7391 10.6641 18.5353 8.33606 16.1467 5.70761C14.12 3.37955 12.0934 1.80247 11.5867 1.87757Z" fill="black"/>
</g>
</svg>
