<svg width="232" height="48" viewBox="0 0 232 48" fill="none" xmlns="http://www.w3.org/2000/svg">
<path d="M174.442 47.9908C180.391 46.8097 186.382 45.7129 192.331 44.4474C198.863 43.0131 205.395 41.4101 211.635 39.09C217.002 37.1074 222.494 34.5763 226.737 30.6111C229.275 28.2488 231.73 25.0006 231.979 21.3728C232.187 18.6308 230.814 16.1842 228.859 14.4124C226.321 12.0923 223.118 10.6159 219.956 9.43472C215.962 7.9161 211.76 6.90369 207.6 6.06001C203.023 5.13196 198.447 4.45702 193.787 3.86645C189.502 3.36024 185.175 2.9384 180.848 2.60093C177.562 2.34782 174.275 2.17909 170.988 2.01035C167.743 1.84162 164.457 1.67288 161.212 1.50415C156.677 1.29323 152.1 1.08231 147.566 0.913571C142.407 0.702652 137.29 0.533916 132.131 0.407364C126.556 0.280812 120.939 0.15426 115.364 0.0698926C109.54 -0.0144752 103.757 -0.0144752 97.9326 0.0277087C92.0665 0.0698926 86.2004 0.15426 80.2927 0.36518C74.5514 0.533916 68.8101 0.787019 63.1104 1.16667C57.702 1.50415 52.3351 1.92599 46.9683 2.51656C42.0174 2.98058 37.1082 3.65553 32.2406 4.45702C28.0387 5.17415 23.8367 6.06001 19.7595 7.19898C16.3481 8.12702 12.9782 9.26599 9.8163 10.8268C7.4033 12.0079 4.99029 13.4422 3.07653 15.3827C1.5372 16.9435 0.372298 18.8839 0.0810736 21.0775C-0.168548 22.7648 0.164281 24.4944 0.996351 25.9708C1.95323 27.6582 3.40936 28.9659 4.90708 30.0627C6.90405 31.4969 9.10904 32.5515 11.3972 33.4374C14.2263 34.5763 17.1385 35.5044 20.0508 36.2637C23.5455 37.1917 27.0818 37.9511 30.6597 38.5838C34.7784 39.3431 38.8972 39.9337 43.0575 40.4821C47.5923 41.0727 52.1271 41.5367 56.6619 41.9585C61.5295 42.3804 66.4387 42.76 71.3479 43.0553C76.4652 43.3506 81.5824 43.6037 86.6996 43.8146C91.9417 44.0255 97.1421 44.1521 102.384 44.2365C107.668 44.3208 112.91 44.4052 118.194 44.4052C123.352 44.4052 128.511 44.4052 133.67 44.363C138.662 44.3208 143.655 44.2365 148.647 44.1099C153.349 44.0255 158.008 43.8568 162.709 43.7303C166.953 43.6037 171.238 43.435 175.482 43.2241C179.226 43.0553 183.012 42.8444 186.756 42.6335C189.876 42.4647 192.997 42.2538 196.117 42.0007C198.447 41.832 200.777 41.6211 203.106 41.368C203.897 41.2836 203.897 40.0181 203.106 40.1024C200.693 40.3555 198.28 40.5665 195.867 40.7352C192.747 40.9883 189.627 41.157 186.507 41.368C182.762 41.5789 179.06 41.7898 175.315 41.9585C171.072 42.1695 166.828 42.3382 162.584 42.4647C157.966 42.6335 153.307 42.76 148.689 42.8444C143.738 42.9709 138.829 43.0553 133.878 43.0975C128.719 43.1397 123.602 43.1819 118.443 43.1397C113.243 43.1397 108.001 43.0553 102.8 42.9709C97.5998 42.8866 92.3993 42.7178 87.1989 42.5491C82.0817 42.3804 77.006 42.1273 71.9304 41.832C67.0628 41.5367 62.2368 41.1992 57.3691 40.7774C52.8344 40.3977 48.2996 39.9337 43.8064 39.3431C39.7293 38.8369 35.6521 38.2463 31.575 37.487C27.9971 36.8543 24.4191 36.095 20.8828 35.2091C17.929 34.4498 15.0167 33.5639 12.1877 32.425C11.0228 31.9609 9.98272 31.4969 8.77621 30.9063C7.77773 30.4001 6.77924 29.8096 5.82236 29.1768C5.61434 29.0502 5.40633 28.8815 5.19831 28.7128C5.1151 28.6284 4.99029 28.544 4.90708 28.5019C4.82388 28.4175 4.86548 28.4597 4.86548 28.4597C4.82388 28.4175 4.74067 28.3753 4.69907 28.3331C4.32463 28.0378 3.99181 27.7004 3.65898 27.4051C3.36775 27.1098 3.03492 26.7723 2.7853 26.4348C2.7437 26.3927 2.7021 26.3505 2.7021 26.3083C2.61889 26.1817 2.7853 26.3927 2.7021 26.3083C2.61889 26.2239 2.57729 26.1396 2.49408 26.0552C2.36927 25.8865 2.24446 25.7177 2.16125 25.549C2.07804 25.3803 1.95323 25.2115 1.87003 25.0428C1.82842 24.9584 1.78682 24.874 1.74522 24.7897C1.74522 24.7475 1.70361 24.7053 1.70361 24.6631C1.6204 24.4944 1.70361 24.7053 1.70361 24.6209C1.5788 24.2835 1.45399 23.9038 1.37078 23.5242C1.37078 23.4398 1.32918 23.3554 1.32918 23.2289C1.32918 23.1445 1.28758 22.8492 1.28758 23.0601C1.24597 22.8914 1.24597 22.6805 1.24597 22.5117C1.24597 22.1321 1.24597 21.7102 1.28758 21.3306C1.24597 21.5415 1.28758 21.204 1.32918 21.1197C1.37078 20.9931 1.37078 20.8666 1.41239 20.74C1.45399 20.4869 1.5372 20.2338 1.6204 20.0229C1.66201 19.8963 1.70361 19.812 1.74522 19.6854C1.74522 19.6432 1.78682 19.5589 1.78682 19.5167C1.78682 19.4745 1.82842 19.4745 1.82842 19.4323C1.78682 19.5589 1.87003 19.3058 1.82842 19.4323C1.91163 19.2214 2.03644 18.9683 2.16125 18.7574C2.7021 17.7028 3.20134 17.07 4.03341 16.2263C5.86397 14.3702 8.15216 13.0204 10.6068 11.8392C13.6854 10.3628 17.0137 9.26599 20.342 8.38013C24.4607 7.24116 28.6211 6.39748 32.7815 5.68036C37.6075 4.87886 42.4335 4.2461 47.3011 3.73989C52.6263 3.1915 57.9932 2.76966 63.3601 2.43219C69.0181 2.09472 74.7178 1.84162 80.3759 1.67288C86.2004 1.50415 92.0249 1.37759 97.8494 1.33541C103.674 1.25104 109.415 1.25104 115.198 1.29323C120.731 1.33541 126.265 1.46196 131.798 1.58851C136.957 1.71507 142.074 1.8838 147.233 2.09472C151.768 2.26346 156.261 2.47438 160.796 2.6853C164.082 2.85403 167.369 3.02277 170.656 3.1915C173.859 3.36024 177.063 3.52897 180.266 3.78208C184.51 4.07737 188.753 4.45702 192.955 4.96323C197.49 5.51162 202.025 6.14438 206.518 7.03024C210.72 7.87392 214.922 8.88633 218.916 10.3206C221.994 11.4174 225.239 12.8938 227.652 15.003C228.693 15.8889 229.441 16.7747 230.024 17.9559C230.19 18.2934 230.232 18.3355 230.315 18.7152C230.398 19.0105 230.481 19.2636 230.565 19.5589C230.648 19.9385 230.648 19.9385 230.648 20.3182C230.648 20.6135 230.648 20.9509 230.648 21.2462C230.606 21.8368 230.481 22.4696 230.273 23.1445C230.024 23.8616 229.774 24.4522 229.4 25.1271C228.36 26.9411 226.987 28.5862 225.447 29.9783C221.162 33.8592 215.629 36.2637 210.304 38.162C204.063 40.3977 197.615 41.9585 191.125 43.3506C185.466 44.5739 179.767 45.5864 174.067 46.7253C173.318 46.8941 173.651 48.1174 174.442 47.9908Z" fill="#F07DD1"/>
</svg>
