<svg width="81" height="31" viewBox="0 0 81 31" fill="none" xmlns="http://www.w3.org/2000/svg">
<path d="M0.125137 30.5556L0 30.4269V0.257317L0.187706 0.128662H27.7179L27.843 0.257317V30.3626L27.7179 30.4913H0.125137V30.5556ZM20.9605 23.0936H6.94511C6.94511 23.0936 6.7574 22.9006 6.7574 22.8363V7.71934L6.88254 7.59068H21.2107L21.3359 7.46203V2.3158L21.2107 2.18714H6.63226C6.63226 2.18714 6.50713 2.25147 6.44456 2.25147V7.01173C6.44456 7.01173 6.31942 7.26904 6.25685 7.26904H2.00219L1.87706 7.33337V23.4152L2.00219 23.5438H6.31942C6.38199 23.6082 6.50713 23.8011 6.50713 23.8655V28.4328L6.63226 28.5614H21.2733L21.3984 28.4328V23.8012C21.3984 23.8012 21.461 23.6726 21.5236 23.6082L25.9034 23.5438C26.0911 23.4795 26.0911 23.2866 26.0911 23.0936C26.2788 20.7135 25.9659 18.076 26.0911 15.6316L25.9034 15.1813H21.5236L21.3984 15.0527V12.7368L21.2733 12.6082H13.8902C13.7651 12.7369 13.7651 12.8012 13.7025 12.9942C13.6399 13.5088 13.6399 14.6024 13.7025 15.1813C13.7025 15.3743 13.7025 15.4386 13.8902 15.5673H20.9605V23.0936Z" fill="black"/>
<path d="M42.5466 26.6316C42.6717 26.6959 42.6717 27.1462 42.6717 27.2749C42.6092 28.1755 42.1712 29.1404 41.4829 29.655C39.9813 30.8129 38.0417 30.2983 36.978 28.8187C35.7266 27.0819 36.2272 24.3801 38.1668 23.4152C38.9802 22.9649 40.2941 22.9649 41.1075 23.4152C41.4204 23.6082 41.7958 23.9299 42.0461 24.1872C42.1712 24.3158 42.3589 24.5731 42.2338 24.7661C42.2338 24.8304 42.1086 24.8304 42.0461 24.8948C41.9835 24.9591 41.9835 25.1521 41.7332 25.0234C41.6706 25.0234 41.2952 24.5088 41.1701 24.3801C40.0439 23.4152 38.4171 23.7369 37.5411 24.8948C36.6652 26.117 36.7903 27.9825 37.9165 29.0117C39.293 30.2983 41.6081 29.462 41.7958 27.5322L41.7332 27.4035H40.0439L39.8562 26.9532L40.0439 26.6316H42.5466Z" fill="black"/>
<path d="M72.8298 19.8128L72.6421 19.9415L68.1371 14.731L67.8869 14.6666V19.5555C67.8869 19.8128 67.4489 19.8128 67.2612 19.8128C67.1986 19.8128 67.136 19.6199 67.136 19.6199V12.7368C67.3863 12.7368 67.6366 13.0585 67.8243 13.2514C69.0757 14.6023 70.2645 16.0819 71.4533 17.4971C71.641 17.6901 71.7661 17.8187 71.9538 18.0117L72.1415 17.883V12.9298L72.2667 12.8655H72.7046L72.8298 12.9298V19.8128Z" fill="black"/>
<path d="M65.5093 29.4619C65.5718 29.4619 65.6344 29.5263 65.7595 29.5263V30.1052C65.697 30.1052 65.6344 30.1695 65.5093 30.1695C64.1328 30.3625 62.4434 30.0409 61.0043 30.1695L60.8166 30.1052C60.7541 29.9765 60.7541 29.8479 60.6915 29.6549C60.5664 27.7251 60.8166 25.538 60.6915 23.6081C60.6915 23.4151 60.7541 23.2222 60.9418 23.1578H65.4467L65.7595 23.2865V23.8011C65.7595 23.8654 65.5718 23.9298 65.5718 23.9298H61.5049C61.4423 24.4444 61.3797 25.2163 61.4423 25.7309C61.4423 25.8596 61.4423 25.9239 61.5674 25.9882L65.1964 26.0526L65.3216 26.1812V26.6958H61.7552C61.6926 26.6958 61.5049 26.8245 61.4423 26.8888V29.3976L61.5674 29.5263H65.5093V29.4619Z" fill="black"/>
<path d="M74.394 2.31579L74.5817 2.18713L79.2118 7.39765C79.2743 7.46198 79.3369 7.33332 79.3369 7.33332V2.38012C79.5872 2.18713 80.0251 2.18713 80.0877 2.5731L80.0252 9.26314C79.6497 9.07016 79.462 8.6842 79.2118 8.36256C77.9604 7.01168 76.709 5.59649 75.5202 4.18129C75.4576 4.11696 75.4576 4.05263 75.3951 3.9883L75.1448 4.05263V9.00583C74.8945 9.07016 74.7068 9.07016 74.4565 9.00583V2.31579H74.394Z" fill="black"/>
<path d="M36.978 16.2748L37.1657 16.4035C37.1657 16.5965 37.1657 16.7894 37.1657 16.9824C36.8529 19.8772 33.4742 20.9064 31.6597 18.6549C30.4083 17.1111 30.596 14.731 32.0977 13.3801C33.5993 12.0935 35.7892 12.4152 36.7903 14.152L36.3523 14.6023C36.102 14.4093 35.9143 14.152 35.6641 13.8947C34.225 12.6725 32.2854 13.4444 31.6597 15.1169C30.9714 16.9824 32.3479 19.3625 34.4127 19.1052C35.3512 18.9766 36.3523 18.076 36.2897 17.0468L36.1646 16.9181L34.4753 16.8538L34.4127 16.2748C34.4127 16.2105 34.6004 16.1462 34.6004 16.1462H36.978V16.2748Z" fill="black"/>
<path d="M40.607 2.18708C40.607 2.18708 40.7321 2.05842 40.7321 2.12275L45.3622 7.39762L45.5499 7.26897V2.31573L46.113 2.2514L46.2381 2.31573V9.13446C46.2381 9.13446 46.113 9.26312 46.113 9.19879L41.5455 3.92392C41.4204 3.92392 41.3578 4.24555 41.3578 4.30988V9.00581L41.2327 9.07014H40.6695L40.607 9.00581V2.18708Z" fill="black"/>
<path d="M49.5543 13.5731V13.8304L49.1163 14.0234C48.866 14.0234 48.6783 13.7017 48.428 13.5731C47.8024 13.3158 46.7387 13.3158 46.1756 13.7017C45.675 14.0877 45.5499 14.731 46.1756 15.0526C47.1141 15.6316 49.8045 15.9532 50.0548 17.3041C50.3051 18.7836 49.0537 19.6199 47.8024 19.8128C47.3018 19.9415 46.9264 19.8772 46.3633 19.7485C45.4873 19.5555 44.7991 19.1052 44.4862 18.2047L44.5488 18.0117C44.6739 17.9473 44.9868 17.8187 45.1119 17.883C45.1745 17.9473 45.237 18.076 45.2996 18.2047C45.8002 18.8479 46.8013 19.1696 47.5521 19.1052C48.428 19.0409 49.742 18.076 48.9912 17.1111C48.5532 16.5321 46.9264 16.2105 46.2381 15.8889C45.3622 15.5029 44.4862 14.8596 44.9868 13.7661C45.6125 12.3509 47.9901 12.2222 49.1163 13.0585C49.2414 13.3158 49.304 13.5087 49.5543 13.5731Z" fill="black"/>
<path d="M47.5521 2.31576C47.6147 2.18711 49.0537 2.25143 49.304 2.25143C53.1833 2.6374 53.1833 8.87718 49.1789 9.13449C48.6783 9.19881 48.0526 9.13449 47.5521 9.07016V2.31576ZM48.2403 3.08769V8.29823C48.428 8.55554 48.7409 8.49121 48.9912 8.49121C52.057 8.29823 52.3699 4.11693 49.9297 3.15202C49.4917 2.95904 49.2414 3.02336 48.8035 3.02336C48.5532 3.02336 48.428 2.83038 48.2403 3.08769Z" fill="black"/>
<path d="M30.8463 23.2866C30.9089 23.1579 31.3468 23.1579 31.472 23.2866L31.5971 28.6257C31.5971 28.6901 31.9725 29.2047 31.9725 29.269C32.0351 29.3333 32.5982 29.5906 32.7233 29.655C33.5367 29.7836 34.4127 29.3977 34.6004 28.4971C34.6004 28.4328 34.663 27.9825 34.663 27.9825V23.3509L34.7881 23.2866H35.2261L35.3512 23.3509V28.5614C35.3512 28.6901 34.9132 29.5263 34.7881 29.655C34.663 29.7836 34.1624 30.1696 34.0373 30.2339C33.0362 30.6842 31.6597 30.2982 31.0966 29.3333C31.034 29.269 30.8463 28.6257 30.8463 28.5614V23.2866Z" fill="black"/>
<path d="M46.1756 23.1578L48.8035 29.9765C48.7409 30.2339 48.1778 30.2339 48.0526 29.9765C47.9275 29.7192 47.4895 28.2397 47.3018 28.1754H44.7365L43.9231 30.0409C43.798 30.1695 43.36 30.1695 43.2974 30.0409C43.2974 29.9766 43.4851 29.4619 43.4851 29.3333C44.1734 27.4035 45.0493 25.345 45.8627 23.4795C45.9253 23.3508 45.9879 23.1578 46.1756 23.1578ZM46.0504 24.8947L45.8627 25.2163L45.0493 27.2748C45.0493 27.5321 46.7387 27.4678 46.989 27.3391C47.0515 27.3391 47.0515 27.2748 47.1141 27.2748C46.9264 27.0818 46.9264 26.8245 46.8638 26.6315C46.8013 26.5672 46.7387 26.4385 46.7387 26.3742C46.6136 26.1812 46.2381 24.8947 46.0504 24.8947Z" fill="black"/>
<path d="M37.9165 19.6842C37.854 19.2982 38.1042 19.0409 38.2294 18.7193C38.8551 17.1754 39.4807 15.5672 40.1064 14.0234C40.2941 13.5731 40.4818 13.1228 40.6695 12.7368L43.4226 19.5555C43.36 19.6842 42.8594 19.6842 42.7343 19.6199C42.5466 19.4269 42.2338 18.3976 42.1086 18.076C42.0461 18.0117 42.0461 17.8188 41.9209 17.8188C41.1701 17.8831 40.2941 17.6901 39.5433 17.8188C39.3556 17.8188 39.293 17.9474 39.1679 18.1404L38.6048 19.6842C38.4171 19.7485 38.1668 19.6842 37.9165 19.6842ZM41.6706 17.1111C41.7332 16.7251 41.4829 16.4678 41.3578 16.1462C41.2952 15.9532 40.8573 14.4737 40.6695 14.4737L39.6685 16.9824L39.731 17.1755H41.6706V17.1111Z" fill="black"/>
<path d="M55.6234 2.18713C56.2491 3.79532 56.8748 5.40351 57.5005 7.01168C57.6256 7.33332 57.7508 7.71929 57.8759 8.04092C58.001 8.29823 58.3139 8.81285 58.1887 9.07016L58.001 9.19882L57.563 9.00583L56.9374 7.26899C56.8122 7.20467 56.6871 7.20467 56.5619 7.14034C56.0614 7.07601 55.0603 7.07601 54.5598 7.14034C54.372 7.14034 54.2469 7.14034 54.1218 7.33332C53.9341 7.65496 53.6838 8.81285 53.4335 9.00583C53.3084 9.13449 52.8078 9.19882 52.7453 8.94151C53.2458 7.59063 53.8089 6.23977 54.3721 4.88889C54.6223 4.37427 54.81 3.79532 55.0603 3.2807C55.248 2.89474 55.248 2.38012 55.6234 2.18713ZM54.4972 6.49706H56.4368C56.4368 6.49706 56.562 6.43273 56.4994 6.36842L55.6234 3.9883C55.248 4.11696 55.1854 4.63158 55.0603 4.95322C54.8726 5.46784 54.6223 5.91813 54.4972 6.49706Z" fill="black"/>
<path d="M39.2305 2.3158V7.01171C39.2305 7.07604 39.1053 7.78364 39.1053 7.9123C38.9176 8.6199 37.9165 9.26318 37.2283 9.3275C36.9154 9.39183 36.4775 9.26318 36.1646 9.13452C35.7266 8.94154 35.2261 8.49125 35.0384 8.10528C34.9758 8.04096 34.8507 7.46201 34.8507 7.46201V2.38012L34.9758 2.3158C35.0384 2.3158 35.1009 2.3158 35.1635 2.3158C35.2886 2.3158 35.4138 2.3158 35.4764 2.44445V6.75441C35.4764 6.75441 35.5389 6.81873 35.5389 6.88306C35.6015 7.33335 35.6015 7.71932 35.8518 8.04095C36.4149 8.81288 37.9165 8.74856 38.4171 7.9123C38.4171 7.84797 38.6673 7.26902 38.6673 7.2047V2.38012L38.7925 2.3158H39.2305Z" fill="black"/>
<path d="M55.1854 30.1052V26.4385C55.1854 26.3099 55.686 25.6666 55.8737 25.6666V29.2046C55.8737 29.2689 55.9988 29.3333 55.9363 29.4619H57.2502C57.4379 29.4619 58.0636 29.1403 58.2513 29.0116C60.0032 27.5964 59.5027 24.4444 57.1876 23.9941V23.8011L57.563 23.4151C57.7508 23.3508 58.5016 23.7368 58.6893 23.8654C60.2535 25.0876 60.4412 27.5964 59.1898 29.1403C58.1262 30.2982 56.6245 30.2982 55.1854 30.1052Z" fill="black"/>
<path d="M60.3161 7.8479C60.8792 8.42685 61.4423 8.5555 62.2557 8.49117C62.8814 8.42685 63.2568 8.10521 63.7573 7.78357C63.945 7.8479 63.8825 8.42685 63.7573 8.5555C62.068 9.90638 59.6278 8.94147 58.9396 7.01164C57.9385 4.30987 60.1284 1.47946 63.0065 2.25139C63.5696 2.38005 64.1953 2.89467 63.7573 3.47362C63.3194 3.21631 62.9439 2.959 62.506 2.83034C61.1295 2.5087 59.8155 3.60227 59.5027 4.95315C59.1898 6.04672 59.5652 7.1403 60.3161 7.8479Z" fill="black"/>
<path d="M57.6882 13.5088H55.248L55.0603 13.6374L54.9977 19.7485H54.4346L54.3721 13.7017L54.1843 13.5731H51.7442L51.8067 12.9298H57.6256L57.6882 13.5088Z" fill="black"/>
<path d="M64.5707 13.573C64.7584 13.4444 65.0713 13.8947 65.1964 14.0233C66.0098 15.1812 66.1349 16.5964 65.5718 17.9473C64.7584 19.7485 62.6937 20.5204 60.9417 19.5555C60.3786 19.2339 60.5038 18.9766 60.9417 18.6549H61.0669C61.3797 18.8479 61.8177 19.0409 62.1305 19.1052C63.3194 19.2982 64.4456 18.5263 64.8836 17.4327C65.3215 16.3391 65.1338 14.9882 64.3204 14.152C64.1953 13.959 64.5082 13.8304 64.5707 13.573Z" fill="black"/>
<path d="M31.472 4.95322C31.5345 4.95322 31.5971 5.01755 31.6597 5.01755H33.4742L33.5367 5.1462V5.59649L33.4742 5.72515H31.6597C31.5345 5.78948 31.5345 5.8538 31.472 6.04679C31.3468 6.94737 31.5345 8.04094 31.472 8.94152C31.4094 9.19883 30.9714 9.19883 30.8463 9.00585V2.38012L30.9714 2.25146H33.5367L33.7244 2.63743L33.5367 2.95907H31.7222C31.7222 2.95907 31.472 3.08772 31.472 3.15205V4.95322Z" fill="black"/>
<path d="M72.5795 8.29826C72.3292 8.6199 71.641 9.07019 71.203 9.19885C70.2019 9.52049 69.0757 9.45616 68.1997 8.81288C68.1997 8.68423 68.45 8.23394 68.5751 8.16961C68.888 8.29826 69.2634 8.49125 69.6388 8.55557C71.8913 8.87721 73.3303 6.43277 72.3918 4.37432C72.1415 3.8597 71.5784 3.53806 72.3918 3.08777C73.7683 4.50297 73.7683 6.81873 72.5795 8.29826Z" fill="black"/>
<path d="M69.7013 2.12277C70.1393 2.05844 70.7024 2.12277 71.1404 2.25143C71.3281 2.31575 71.7035 2.50873 71.5784 2.70172L71.203 3.08768C70.8901 3.02336 70.6399 2.8947 70.327 2.8947C68.2623 2.70172 67.0109 4.7602 67.574 6.69004C67.6992 7.14033 68.1371 7.46197 67.7617 7.91226C67.4489 8.29823 67.1986 7.78361 67.0735 7.46197C66.0098 5.33914 67.2612 2.44441 69.7013 2.12277Z" fill="black"/>
<path d="M62.0054 12.6725C62.4434 12.6082 63.0691 12.6082 63.5071 12.8012C64.1328 12.9941 63.9451 13.2515 63.5696 13.6374C62.1306 13.2515 60.7541 13.6374 60.1284 15.117C59.8781 15.6959 59.8781 16.7251 60.0658 17.3684C60.1284 17.5614 60.3161 17.8187 60.3161 17.9474C60.3161 18.2047 60.0658 18.3977 59.8781 18.5906C59.8155 18.5906 59.4401 17.9474 59.3776 17.8187C58.6267 15.7602 59.753 12.9941 62.0054 12.6725Z" fill="black"/>
<path d="M49.8671 23.4153C49.9297 23.0294 50.618 23.0937 50.618 23.4796V29.3334L50.7431 29.4621H51.8693C52.057 29.4621 51.8693 29.7837 51.8068 29.8481C51.7442 29.9767 51.619 30.1697 51.4313 30.234C51.2436 30.2984 50.3051 30.2984 50.1174 30.234C49.9923 30.234 49.9297 30.1697 49.8671 30.041V23.4153Z" fill="black"/>
<path d="M65.1339 9.07007V2.31571C65.3841 2.25139 65.6344 2.18706 65.8221 2.44437V9.00575L65.697 9.07007H65.1339Z" fill="black"/>
<path d="M71.2656 1.15789C71.203 1.09357 71.0779 1.09357 71.0779 1.02924L71.7661 0L72.0789 0.0643275C72.2041 0.25731 72.8298 0.643275 72.8923 0.836257C72.9549 1.02924 72.2667 1.73684 72.1415 1.92982C71.7661 1.80117 71.5158 1.4152 71.2656 1.15789Z" fill="black"/>
<path d="M64.2579 10.4853C64.5082 10.421 64.9461 11.0643 65.1964 11.1929C65.259 11.2573 65.259 11.3216 65.259 11.3859C65.259 11.5789 64.6959 12.2865 64.5082 12.4152C64.383 12.4152 63.5696 11.7076 63.5696 11.5789C63.5071 11.3216 64.0702 10.7427 64.2579 10.4853Z" fill="black"/>
<path d="M56.4994 23.158C56.562 23.2223 56.2491 23.7369 56.1865 23.8012C56.124 23.8656 55.9988 23.8656 55.9363 23.9299C55.8737 23.9942 55.7486 24.3158 55.6234 24.5088C55.4983 24.7018 55.4983 24.8948 55.1854 24.8948V23.2223L55.3106 23.0936H56.4994V23.158Z" fill="black"/>
<path d="M52.6827 30.1696C52.4324 30.1053 52.8078 29.655 52.8704 29.5907C53.1207 29.3334 53.8715 29.3334 54.1218 29.5907L54.1843 30.1053C54.1843 30.1696 53.9966 30.234 53.9966 30.234C53.7464 30.1696 52.933 30.234 52.6827 30.1696Z" fill="black"/>
<path d="M20.9605 23.0936V15.6316H13.8902C13.7025 15.5029 13.7651 15.4386 13.7025 15.2456C13.6399 14.6667 13.6399 13.5731 13.7025 13.0585C13.7025 12.9298 13.7651 12.8012 13.8902 12.6725H21.2733L21.3984 12.8012V15.1169L21.5236 15.2456H25.9034L26.0911 15.6959C25.9659 18.1403 26.2788 20.7134 26.0911 23.1579C26.0911 23.3509 26.0911 23.4795 25.9034 23.6082L21.5236 23.6725C21.461 23.6725 21.3984 23.8012 21.3984 23.8655V28.4971L21.2733 28.6257H6.56969L6.44456 28.4971V23.8012C6.44456 23.7368 6.31942 23.5438 6.25685 23.4795H2.00219L1.87705 23.4152V7.33332L2.00219 7.20466H6.31942C6.31942 7.20466 6.50712 7.01168 6.50712 6.94736V2.25146C6.56969 2.25146 6.63226 2.18713 6.69483 2.18713H21.2733L21.3984 2.31579V7.59063L21.2733 7.71929H6.88253H6.81997V22.8362C6.81997 22.8362 6.9451 23.0936 7.00767 23.0936H20.9605ZM7.00767 2.63743L6.88253 2.76608V7.07601L7.07024 7.26899H20.8979L21.023 7.07601V2.83041L20.8979 2.70175H7.00767V2.63743ZM6.31942 7.65496H2.31503L2.25246 8.10525V22.9649L2.31503 23.1579C2.44017 23.1579 2.56531 23.1579 2.62787 23.1579C3.5664 23.2222 5.06805 23.2222 6.00658 23.1579C6.13171 23.1579 6.25685 23.1579 6.38199 23.0936L6.44456 22.6433L6.38199 7.78361L6.31942 7.65496ZM20.9605 13.0585H14.2031L14.0779 13.1871V15.1169L14.2031 15.2456H20.8353L20.9605 15.1169V13.0585ZM25.5905 23.0936V15.6959L25.4654 15.5672H21.3984L21.3359 23.0292C21.461 23.1579 21.6487 23.1579 21.7738 23.1579C22.6498 23.2222 24.214 23.2222 25.09 23.1579C25.3403 23.1579 25.4654 23.0936 25.5905 23.0936ZM20.9605 23.5438H6.9451C6.81997 23.6725 6.81997 23.7368 6.7574 23.9298C6.63226 24.8947 6.69483 26.7602 6.7574 27.7251C6.7574 27.8538 6.81997 27.9824 6.81997 28.1111H20.8979V23.5438H20.9605Z" fill="white"/>
<path d="M6.31942 7.65503L6.44456 7.84801L6.50713 22.7077L6.44456 23.158C6.25684 23.158 6.19427 23.158 6.06914 23.158C5.13061 23.2223 3.5664 23.2223 2.69044 23.158C2.5653 23.158 2.44016 23.0937 2.31503 23.0937L2.25246 22.9006V8.04099L2.31503 7.5907H6.31942V7.65503Z" fill="black"/>
<path d="M7.00767 2.63745H20.8353L20.9605 2.70178L21.023 6.94741L20.8979 7.20472H7.07024L6.81997 7.01173V2.70178L7.00767 2.63745Z" fill="black"/>
<path d="M20.9605 23.5438V28.1111H6.88254C6.88254 27.9824 6.81997 27.8538 6.81997 27.7251C6.7574 26.7602 6.69483 24.8304 6.81997 23.9298C6.81997 23.8011 6.88254 23.6725 7.00767 23.5438H20.9605Z" fill="black"/>
<path d="M25.5905 23.0936C25.4654 23.0936 25.3403 23.1579 25.1525 23.1579C24.2766 23.2222 22.7124 23.2222 21.8364 23.1579C21.6487 23.1579 21.5236 23.0935 21.3984 23.0292L21.461 15.5673H25.528L25.6531 15.6959V23.0936H25.5905Z" fill="black"/>
<path d="M20.9605 13.0585V15.117L20.8353 15.1813H14.2031L14.0779 15.117V13.1871L14.2031 13.0585H20.9605Z" fill="black"/>
</svg>
