<svg width="92" height="46" viewBox="0 0 92 46" fill="none" xmlns="http://www.w3.org/2000/svg">
<g clip-path="url(#clip0_29_640)">
<path d="M1.91264 28.7513C2.27821 28.9966 2.15635 29.3646 2.21728 29.7326C2.46099 30.7139 2.58284 31.7566 2.76562 32.7379L3.00933 32.5539L3.80139 29.0579C3.98417 28.5673 5.56827 28.6286 5.75105 28.8739L6.7868 32.5539L7.03051 32.9219C6.90865 32.3086 7.15236 31.7566 7.27421 31.2046C7.33514 30.9593 7.27421 30.7139 7.27421 30.5299C7.33514 30.0393 7.51792 29.5486 7.51792 28.9966C7.51792 28.9353 7.76163 28.6899 7.76163 28.6899H9.46759C9.46759 28.8739 9.58945 28.9966 9.58945 29.1806C9.52852 29.7326 9.28481 30.4686 9.16296 31.0206C8.85832 32.4926 8.61461 33.9646 8.30998 35.4366C8.18812 35.8659 8.00534 36.1726 7.57885 36.2339C7.09143 36.2953 6.17753 36.3566 5.87291 35.9273L4.89807 31.6339L3.80139 35.9886C3.55768 36.2953 2.0345 36.2953 1.79079 36.1113C1.42523 35.8046 1.48615 35.2526 1.3643 34.8846C1.05966 33.7193 0.815955 32.5539 0.572247 31.3273C0.389465 30.6526 0.0848289 29.7326 0.023902 29.0579C-0.0370251 28.9966 0.023902 28.7513 0.145756 28.7513H1.91264Z" fill="black"/>
<path d="M83.9814 15.9325C84.1032 15.6259 84.5297 15.5032 84.4688 15.1352C84.3469 15.0125 83.3112 15.8712 83.0675 15.9325C81.8489 16.4845 80.2648 16.4232 79.0463 15.8712C76.9747 14.9512 73.9893 11.9459 73.0145 9.92185C72.2833 8.44985 71.7959 5.93521 73.1363 4.64721C73.9284 3.84988 75.5734 3.78854 76.3655 4.58588C76.0608 4.76988 75.6953 4.46321 75.3906 4.40188C74.4158 4.27921 73.3191 5.01521 73.1363 5.99654C73.0754 6.30318 73.0754 7.22318 73.1363 7.52985C73.1363 7.71385 73.3191 8.26585 73.38 8.44985C74.1112 10.7805 76.731 13.6019 78.8026 14.7672C80.4476 15.6872 81.9098 15.8098 83.4939 14.7059C83.6158 14.5832 84.286 14.0312 84.3469 13.9698C84.5906 13.6018 83.9814 13.6019 83.7986 13.6019C83.7377 13.6019 83.7377 13.7859 83.6767 13.8472C83.2502 14.2152 82.3363 14.7672 81.788 14.8898C81.4833 14.9512 80.2648 14.9512 80.0211 14.8285C79.1072 14.4605 79.3509 13.5405 79.9602 12.9885C80.6304 12.3752 82.0317 12.2525 82.8847 12.2525C83.3112 12.2525 83.8595 12.6819 83.8595 11.9459C83.8595 11.7005 83.3721 11.3325 83.0675 11.3325C81.3615 11.0872 79.7165 11.8232 78.6198 13.1112C78.437 12.9885 78.6198 12.8045 78.6807 12.6819C79.5337 11.1485 81.6052 10.2285 83.3112 10.5352C83.4939 10.5352 83.7986 10.7192 83.9814 10.8419C84.7734 11.3939 84.5297 11.8232 84.5906 12.6819L85.0781 13.1112C86.1138 11.9459 87.0886 10.2899 87.5761 8.81785C88.1853 6.97785 88.3681 3.60454 86.2966 2.62321C86.1747 2.56187 85.5655 2.31654 85.4436 2.31654C84.5906 2.19388 83.3721 2.62321 82.641 2.99121C82.58 2.99121 82.58 2.86854 82.58 2.80721C82.641 2.74587 83.6767 2.00987 83.8595 1.94854C85.2608 1.27387 86.9059 1.51921 87.9416 2.74588C90.2569 5.44454 88.1853 10.3512 86.4185 12.8659C85.8701 13.6632 85.7483 13.6018 85.3827 14.5832C85.2608 15.0125 84.8953 15.3805 84.5906 15.6872C84.4688 15.6872 84.0423 15.9938 83.9814 15.9325ZM80.0211 14.0312C81.0569 14.5832 82.2145 13.9085 83.0675 13.2952C82.58 12.9272 81.9098 13.0499 81.4224 13.1725C80.8132 13.2339 80.143 13.4178 80.0211 14.0312Z" fill="black"/>
<path d="M27.3193 25.1939C27.3193 25.2552 26.9537 25.5619 26.8928 25.5619C26.5272 25.6846 25.2477 25.6846 25.2477 25.1326L25.3087 18.2632C25.4914 17.8339 26.6491 17.9566 26.9537 18.3246L28.4769 20.5326L29.208 21.4526V18.4472C29.208 18.3859 29.4517 18.0792 29.5126 18.0179H31.2186C31.2186 18.2019 31.3405 18.3246 31.3405 18.5699C31.5232 20.6552 31.2186 22.9246 31.3405 25.0712C31.3405 25.8686 29.7563 25.6846 29.3299 25.3166C28.7815 24.8259 28.1113 23.4152 27.563 22.6792C27.502 22.5566 27.563 22.4339 27.3193 22.5566V25.1939Z" fill="black"/>
<path d="M39.8702 21.3299V18.3246C39.8702 18.3246 40.053 18.1406 39.9921 18.0179H41.6981C41.8808 18.2019 41.9418 18.3859 42.0027 18.6313C42.1855 20.5939 41.8199 22.8633 42.0027 24.8873C41.9418 25.8686 40.1139 25.6846 39.7484 24.9486L38.1643 22.6179C38.1033 22.4339 37.8596 22.6179 37.8596 22.6793V25.2553C37.8596 25.6233 36.6411 25.5619 36.3974 25.5619C36.1537 25.5619 36.0318 25.5006 35.91 25.2553V18.2019L36.0318 18.0793H37.3113C38.1643 18.9379 38.7126 20.2259 39.5656 21.1459C39.6265 21.2686 39.6265 21.3913 39.8702 21.3299Z" fill="black"/>
<path d="M53.5789 32.1859V29.0579C53.5789 29.0579 53.7617 28.8739 53.7008 28.7512H55.4067C55.4067 28.9352 55.5286 29.0579 55.5286 29.3032C55.7114 31.3886 55.4067 33.6579 55.5286 35.8046C55.6504 36.4792 54.1882 36.4179 53.8835 36.2952C53.7617 36.2339 53.3352 35.7432 53.2743 35.6206C52.7869 35.0072 52.4213 34.1486 51.9339 33.4739L51.5683 33.1672V36.0499C51.1418 36.4792 49.6796 36.5406 49.4968 35.9272V29.4872C49.4359 28.6286 50.7763 28.6899 51.2028 29.0579C51.9948 30.0392 52.6041 31.3272 53.5789 32.1859Z" fill="black"/>
<path d="M38.408 32.6765C38.6517 32.9219 39.0173 33.7805 39.0173 34.0872C39.0173 34.2712 38.7736 35.0072 38.7126 35.1912C38.3471 35.9272 37.1895 36.2339 36.3974 36.2952C35.9709 36.3565 33.6557 36.3565 33.412 36.2339C33.2292 36.1725 33.1683 35.9272 33.1683 35.7432C33.2901 33.6579 32.9855 31.3272 33.1683 29.2419C33.1683 28.9352 33.2901 28.7512 33.5948 28.6899C35.5444 28.7512 39.0782 28.1379 38.5299 31.2045C38.4689 31.6952 37.9815 31.9405 37.9815 32.1859C37.9815 32.5539 38.3471 32.5539 38.408 32.6765ZM35.3007 31.6952C36.2146 31.8179 37.0676 31.4499 36.3974 30.5299L35.3007 30.4072V31.6952ZM35.3007 34.6392C35.7272 34.6392 36.8848 34.7005 37.0676 34.2099C37.3722 33.1672 36.0318 33.2285 35.3007 33.2285V34.6392Z" fill="black"/>
<path d="M22.3842 18.0179C22.506 18.0179 23.1762 18.3246 23.2981 18.3859C24.6994 19.1833 24.6994 22.0046 23.1153 22.6793L24.151 25.1939C24.212 25.7459 22.6279 25.6846 22.2623 25.3779C21.8358 25.0099 21.4093 23.2313 20.9828 23.1699C20.0689 23.4153 21.1047 25.5006 20.1908 25.6233C19.7034 25.6846 18.5458 25.7459 18.6067 25.0713C18.7285 22.9859 18.4239 20.6553 18.6067 18.5699C18.6067 18.3859 18.7285 18.2019 18.7285 18.0179H22.3842ZM20.7391 19.7966C20.4345 19.8579 20.4954 20.9006 20.5563 21.1459C20.6173 21.6979 21.1047 21.6366 21.5312 21.5753C22.6888 21.3913 22.8107 19.9806 21.5312 19.7966C21.3484 19.7966 20.9219 19.7966 20.7391 19.7966Z" fill="black"/>
<path d="M68.384 18.0179C68.5059 18.0179 69.1761 18.3246 69.2979 18.3859C70.6992 19.1833 70.7602 22.0046 69.1151 22.6793C69.0542 23.1699 70.029 24.5806 70.1509 25.1939C70.2118 25.7459 68.6277 25.6846 68.2622 25.3779C67.8357 25.0099 67.4092 23.2313 66.9827 23.1699C66.0688 23.4153 67.1045 25.5006 66.1906 25.6233C65.7032 25.6846 64.5456 25.7459 64.6065 25.0713C64.7284 22.9859 64.4237 20.6553 64.6065 18.5699C64.6065 18.3859 64.7284 18.2019 64.7284 18.0179H68.384ZM66.739 19.7966C66.4343 19.8579 66.4953 20.9006 66.5562 21.1459C66.6171 21.6979 67.1045 21.6366 67.531 21.5753C68.6886 21.3913 68.7496 19.9806 67.531 19.7966C67.3482 19.7966 66.9218 19.7966 66.739 19.7966Z" fill="black"/>
<path d="M59.8544 17.9565C61.0728 17.7725 62.4741 18.0792 63.0834 19.2445C63.6317 20.4099 63.6926 23.0472 63.1443 24.2125C62.9006 24.7645 62.1695 25.4392 61.5602 25.5619C61.2556 25.6232 59.9762 25.6232 59.6107 25.5619C58.9405 25.4392 58.0875 24.7032 57.8438 24.0285C57.4173 22.9245 57.4173 20.6552 57.8438 19.5512C58.2093 18.6925 58.8795 18.0792 59.8544 17.9565ZM61.0119 19.9805C60.9509 19.9192 60.5246 19.7352 60.4636 19.7352C60.0981 19.6739 59.6716 20.4099 59.6107 20.7165C59.5497 21.1459 59.5497 22.6792 59.6107 23.0472C59.6716 23.4152 60.0981 23.8445 60.4636 23.8445C60.7073 23.8445 61.0119 23.5992 61.0728 23.4152C61.4993 22.8019 61.5602 20.4099 61.0119 19.9805Z" fill="black"/>
<path d="M62.3522 31.5725L60.5855 31.8179C60.4636 31.3885 60.3418 30.5912 59.7934 30.5299C59.306 30.4685 58.9404 30.7139 58.8186 31.2045C58.6358 31.9405 58.6358 33.1672 58.8186 33.9032C59.0014 34.8845 60.7073 34.7619 60.4636 33.5965L59.6716 33.4739C59.6716 33.1059 59.5497 32.5539 59.9153 32.3699C60.0981 32.2472 61.9258 32.2472 62.1695 32.3699C62.596 32.6765 62.535 33.1672 62.535 33.6579C62.4741 34.9459 62.0476 35.9272 60.7073 36.2952C59.4888 36.6019 58.0875 36.4179 57.3563 35.3752C56.5643 34.2712 56.6252 32.0632 56.8689 30.7752C57.1126 29.6712 58.0265 28.8125 59.1232 28.6899C61.0728 28.3832 62.5959 29.3645 62.3522 31.5725Z" fill="black"/>
<path d="M48.461 21.5752C49.0093 22.2499 48.7656 24.0285 48.2782 24.7032C47.608 25.6845 46.2676 25.6845 45.1709 25.5619C44.3179 25.5005 43.5868 24.8259 43.2821 24.0899C42.7338 22.8019 42.7338 20.0419 43.5868 18.9379C44.257 18.0179 45.3537 17.8339 46.4504 17.9565C47.7908 18.0792 48.5828 18.8765 48.7656 20.2259C48.8874 21.1459 47.7908 20.9619 47.1815 21.0845C46.6331 21.0232 46.8768 20.1645 46.4504 19.9192C46.3894 19.8579 45.9629 19.6739 45.902 19.7352C45.8411 19.7352 45.4146 19.9805 45.3537 19.9805C44.8663 20.4712 44.8663 22.9859 45.3537 23.5379C45.7192 23.9672 46.3894 23.9059 46.6941 23.4765C47.2424 22.8019 46.5113 22.9859 46.1457 22.8632C45.7192 22.6792 45.902 21.6365 46.2067 21.6365H48.461V21.5752Z" fill="black"/>
<path d="M42.0027 30.5299V31.5725H44.1961C44.5616 31.5725 44.5616 32.9219 44.4398 33.2285C44.257 33.5352 42.4901 33.1672 42.0636 33.4739V34.5165H45.049C45.4755 34.8845 45.4756 36.1112 44.9272 36.2339H40.4795L39.9312 35.6819V29.1805C39.9312 28.8125 40.1139 28.6899 40.4795 28.6285C41.9417 28.5059 43.5868 28.6899 45.049 28.6285C45.4146 28.7512 45.4755 29.8552 45.1709 30.1619C45.11 30.2232 44.8663 30.4072 44.8053 30.4072H42.0027V30.5299Z" fill="black"/>
<path d="M7.82255 19.7966V20.8393H9.89407C10.4424 20.8393 10.3815 22.1886 10.1987 22.6179H8.00533C7.70069 22.8633 7.70069 23.5379 8.00533 23.7833H10.6861C10.6861 23.7833 10.8689 23.9059 10.9908 23.9059C10.9298 24.3353 11.1735 25.3779 10.6861 25.5006H6.11659C5.87289 25.4393 5.69011 25.2553 5.69011 24.9486C5.81197 22.8633 5.50733 20.5326 5.69011 18.4473C5.69011 18.2633 5.81197 18.0793 5.81197 17.8953H10.6861C11.0517 17.8953 11.1126 19.3059 10.8689 19.4899C10.808 19.4899 10.5033 19.6739 10.4424 19.6739H7.82255V19.7966Z" fill="black"/>
<path d="M15.4994 28.7512C15.9259 28.8739 15.8649 30.1619 15.6822 30.4072C15.3775 30.7139 13.306 30.4686 12.7576 30.5299L12.5749 30.7139V31.5726H14.7682C14.7682 31.5726 15.1338 31.9406 15.1338 32.0019C15.2557 32.3699 15.2557 33.2286 14.7682 33.3512C13.7934 33.5352 12.1484 32.7992 12.6967 34.5166H15.5603C15.9259 34.5166 16.1086 36.2339 15.4384 36.2339L10.808 36.1726C10.7471 36.1112 10.5643 35.9886 10.5643 35.9272V28.9352L10.7471 28.7512H15.4994Z" fill="black"/>
<path d="M79.5946 4.21788C79.6556 4.27921 79.8993 4.34054 79.8993 4.52454L80.082 4.58588C80.5085 4.46321 80.6304 3.91121 81.1178 4.03388C80.996 4.40188 80.3867 4.76988 80.3867 5.13788C80.5085 5.44454 80.6913 5.68988 80.8132 5.99654C81.1178 6.73256 81.3006 7.89789 80.996 8.63389C80.5085 9.79922 78.9854 9.92189 78.437 8.75656C77.8887 7.65256 78.6198 6.24189 79.4119 5.38321C79.29 5.26054 79.1681 5.07654 79.0463 4.89254C78.6807 4.40188 77.8277 3.84988 77.3403 3.54321C76.1827 2.99121 74.4767 2.74588 73.3191 3.35921C71.6132 4.21788 71.2476 5.99654 71.4304 7.83656C71.4304 8.14322 71.6132 8.20456 71.6741 8.44989C72.4052 11.2099 74.6595 13.3566 76.6701 15.1966L79.7165 17.5272C79.29 17.4659 78.8026 17.1592 78.437 16.9752C74.9032 14.9512 70.09 10.4739 70.4556 6.05788C70.5165 4.89254 71.1867 3.60454 72.1006 2.86854C74.4158 0.967209 77.7059 2.19388 79.5946 4.21788ZM80.0211 6.05788H79.7165C79.4119 6.67122 78.8026 7.65256 79.1681 8.26589C79.6556 9.06322 80.3867 8.44989 80.5085 7.71389C80.5695 7.16189 80.143 6.54856 80.0211 6.05788Z" fill="black"/>
<path d="M13.9153 24.2739C13.8543 24.6419 13.7325 25.4392 13.3669 25.5619C13.1841 25.6232 12.0875 25.6232 11.9047 25.5619C11.3563 25.3779 11.7219 24.9486 11.7828 24.7032C11.9047 24.2739 11.9656 23.7832 12.0875 23.3539C12.5749 21.6979 13.0623 20.0419 13.5497 18.3859C13.6106 18.3246 13.6716 18.2019 13.7934 18.1406C13.9762 18.0792 15.2557 18.0179 15.4994 18.0792C15.804 18.2019 15.9868 18.9379 16.1086 19.2446C16.657 20.9006 17.0226 22.6179 17.449 24.2126C17.51 24.5192 17.9974 25.4392 17.449 25.5619C17.2663 25.6232 16.2914 25.6232 16.1086 25.5619C15.3775 25.3779 15.6822 24.5192 15.4385 24.3352L13.9153 24.2739ZM14.7073 20.9619C14.2808 20.8392 14.5245 21.3299 14.4636 21.5752C14.3418 22.3112 13.7325 23.0472 15.0729 22.9246L14.7073 20.9619Z" fill="black"/>
<path d="M53.8835 25.1939C53.8226 25.6846 52.7259 25.6846 52.2994 25.6232C51.9948 25.5619 51.8729 25.3166 51.812 25.0712C51.9338 23.1086 51.6292 20.8392 51.812 18.8766C51.812 18.6926 51.9338 18.2632 52.0557 18.1406L56.5643 18.0792L56.6861 18.2019L56.7471 19.5512C56.7471 19.6739 56.2597 19.8579 56.2597 19.8579H54.1272C53.8835 20.1032 53.8835 20.7166 54.1272 20.9006H56.0159C56.0159 20.9006 56.3815 21.1459 56.4424 21.2072C56.6252 21.4526 56.6252 22.4339 56.3206 22.6179C56.0769 22.8019 54.6755 22.6179 54.2491 22.6792C54.1272 22.6792 54.0663 22.7406 53.9444 22.8632C53.8226 23.5379 54.0053 24.4579 53.8835 25.1939Z" fill="black"/>
<path d="M87.4542 14.0312L86.6013 15.0125C85.1999 16.3618 83.9205 17.8952 82.3973 18.9992L82.3364 18.7539C82.641 18.7539 82.8238 18.3246 82.9456 18.1406C86.1138 14.7672 90.8052 9.1245 90.3787 4.21786C90.2569 2.8072 89.2211 1.3352 87.8198 0.905863C87.5761 0.844529 86.7231 0.660529 86.4185 0.660529C85.9311 0.660529 85.4436 0.967196 84.9562 0.905863C85.0172 0.721863 85.139 0.660529 85.2609 0.599196C88.0635 -0.934138 91.2927 0.599196 91.5973 3.78853C92.0847 7.59117 89.7085 11.1485 87.4542 14.0312Z" fill="black"/>
<path d="M4.53251 42.8579V45.0659C4.16695 45.4339 3.55768 45.1885 3.07026 45.2499L2.88748 44.9432V39.7912C3.98417 38.4419 4.959 41.0179 5.69013 41.7539C5.81199 41.8765 6.05569 41.9992 6.05569 41.7539V39.6072C6.36035 39.2392 7.39611 39.1165 7.5789 39.6072V45.0045L7.45704 45.1272H6.17757L4.83715 43.1032L4.53251 42.8579Z" fill="black"/>
<path d="M2.27822 18.0179C2.27822 18.2019 2.40008 18.3246 2.40008 18.5699C2.52193 20.1646 2.27822 21.9433 2.40008 23.5379L2.58286 23.8446H4.4716C4.4716 23.8446 4.65438 23.9673 4.77623 23.9673C4.71531 24.3966 4.95902 25.4393 4.4716 25.5619H0.876897C0.633188 25.5006 0.328552 25.1939 0.328552 24.9486C0.511333 22.9246 0.14577 20.6553 0.328552 18.6926C0.328552 18.4473 0.450406 18.2019 0.633188 18.0793H2.27822V18.0179Z" fill="black"/>
<path d="M26.2226 34.5166C26.6491 34.6393 26.71 36.1113 26.2226 36.2953C25.1259 36.2339 23.8465 36.4179 22.7498 36.2953C22.2624 36.2339 22.1405 36.1113 22.0796 35.6206C21.8968 33.5966 22.2014 31.2659 22.0796 29.1806C22.2014 28.8739 22.2624 28.7513 22.567 28.7513C22.8107 28.7513 23.6637 28.6899 23.8465 28.7513C23.9683 28.7513 24.1511 29.1193 24.1511 29.1193V34.2713L24.3339 34.4553C24.8822 34.6393 25.7961 34.3939 26.2226 34.5166Z" fill="black"/>
<path d="M27.2583 43.7779C27.563 44.0845 28.1113 43.9005 28.2941 43.4712C28.4159 42.3672 28.1722 41.1405 28.2941 40.0979C28.355 39.4232 28.7815 39.2392 29.3908 39.3619C29.7563 39.4232 29.8782 39.5459 29.9391 39.9139C30.0001 40.8339 30.061 43.0419 29.9391 43.9005C29.6954 45.2499 28.4159 45.4952 27.1974 45.3725C26.3444 45.3112 25.5524 44.8205 25.4914 43.9005C25.3696 42.6739 25.6133 41.2019 25.4914 39.9139C25.4305 39.2392 26.8928 39.2392 27.0146 39.6685C27.1365 40.7725 26.8928 42.1219 27.0146 43.1645C27.0146 43.2872 27.1974 43.7779 27.2583 43.7779Z" fill="black"/>
<path d="M18.9113 34.5165H20.9828C21.3484 34.8845 21.1047 35.6205 21.1656 36.1725C20.9828 36.2338 20.861 36.2952 20.6782 36.2952C19.8252 36.3565 18.2411 36.3565 17.3881 36.2952C17.1444 36.2952 17.0226 36.2338 16.9007 36.0498L16.8398 29.0578L16.9616 28.8125H18.7285L18.8504 28.9352C18.9722 30.5912 18.7285 32.3698 18.8504 33.9645C18.7895 34.2098 18.9113 34.3325 18.9113 34.5165Z" fill="black"/>
<path d="M37.1894 40.8952V41.6925H38.8954C39.1391 41.8152 39.1391 42.6738 39.0173 42.8578C38.7735 43.2258 37.6159 43.0418 37.1894 43.1032V43.9005H39.4437C39.7484 44.1458 39.7484 44.9432 39.4437 45.1885H35.7272L35.5444 45.0045V39.6072C35.6663 39.4232 35.849 39.3618 36.0927 39.3005C36.5802 39.2392 38.7735 39.2392 39.2 39.3005C39.7484 39.4232 39.6874 39.9138 39.6265 40.4045C39.6265 40.5885 39.261 40.8339 39.0782 40.8339H37.1894V40.8952Z" fill="black"/>
<path d="M12.3312 39.9752C12.514 40.1592 12.7577 40.7725 12.6968 41.0178C12.5749 41.3858 11.661 41.5085 11.2955 41.4472C11.2955 40.5272 9.58949 40.5272 10.0769 41.3245C10.2597 41.6925 11.4782 41.8765 11.9047 42.1832C12.7577 42.7352 13.0623 43.8392 12.4531 44.6978C12.0266 45.2498 10.7471 45.4338 10.0769 45.3725C9.34579 45.3112 8.61466 44.7592 8.43188 44.0845C8.18817 43.3485 9.163 43.2258 9.71135 43.4098C9.89413 43.4712 9.95506 43.8392 10.1378 43.9005C10.4425 44.0845 11.2955 43.9618 11.1736 43.5325C11.0517 43.1032 9.8332 42.9192 9.40671 42.7352C7.63982 41.9378 8.31002 39.5458 10.1988 39.3618C10.808 39.3005 11.9047 39.4845 12.3312 39.9752Z" fill="black"/>
<path d="M48.1564 36.1725C47.9736 36.3565 46.5113 36.3565 46.3285 36.1725C46.3285 35.9885 46.2067 35.8045 46.2067 35.6818C46.0239 33.7805 46.3285 31.5112 46.2067 29.5485C46.2676 29.3645 46.3285 28.8739 46.5113 28.8125C46.816 28.6899 48.1563 28.6899 48.2782 29.1192V35.6818C48.2782 35.8045 48.2173 36.0499 48.1564 36.1725Z" fill="black"/>
<path d="M34.5086 18.0179L34.6305 18.5699V25.1939C34.5696 25.5006 34.3868 25.5619 34.0822 25.6233C33.7166 25.6233 32.8027 25.6846 32.6808 25.3779L32.6199 18.3246L32.8027 18.0179H34.5086Z" fill="black"/>
<path d="M33.5338 40.8951C33.4729 42.3671 33.6557 43.8391 33.412 45.2498H32.0716L31.9497 45.1271L31.8888 40.8951C31.4623 40.9565 30.5484 40.9565 30.4875 40.3431C30.4265 39.7911 30.5484 39.4231 31.1577 39.3618C31.7669 39.3005 33.5338 39.3005 34.204 39.3618C35.057 39.4231 34.8742 39.9751 34.8133 40.6498C34.4477 40.8951 33.9603 40.8951 33.5338 40.8951Z" fill="black"/>
<path d="M16.2305 40.8953C16.1696 42.1219 16.3524 43.4713 16.2305 44.6979C16.2305 44.8819 16.1696 45.0659 16.1087 45.1886H14.7073C14.6464 45.0659 14.5855 44.8819 14.5855 44.6979C14.4636 43.4713 14.6464 42.1219 14.5855 40.8953C13.5497 40.9566 13.1232 40.8339 13.306 39.6686C13.3669 39.4846 13.7325 39.3619 13.9153 39.3619C14.4636 39.3006 16.7179 39.3006 17.1444 39.4233C17.6928 39.6073 17.51 40.2206 17.4491 40.6499C17.0835 40.9566 16.657 40.8953 16.2305 40.8953Z" fill="black"/>
<path d="M24.6385 40.7726C24.4557 40.9566 23.7855 40.8953 23.4808 40.8953C23.4199 42.1219 23.6027 43.4713 23.4808 44.6979C23.4199 45.4953 22.5669 45.1886 21.9577 45.1886C21.8967 45.0046 21.8358 44.8819 21.8358 44.6979C21.714 43.4713 21.8967 42.1219 21.8358 40.8953C21.4093 40.8953 20.9828 40.8953 20.6173 40.6499C20.5563 40.2206 20.4345 39.4233 20.9828 39.3619C21.9577 39.4846 23.4199 39.1779 24.3338 39.3619C24.4557 39.4233 24.6994 39.4846 24.7603 39.6686C24.8212 39.8526 24.7603 40.5886 24.6385 40.7726Z" fill="black"/>
<path d="M19.7033 45.2499L18.302 45.1885L18.2411 45.0659V39.7912C18.302 39.1779 19.7643 39.2392 19.8861 39.9139C19.7643 41.5085 20.008 43.2259 19.8861 44.7592C19.8252 44.8819 19.7643 45.0659 19.7033 45.2499Z" fill="black"/>
<path d="M0.876899 39.3619C1.24246 39.3006 1.91266 39.3006 1.97359 39.7299V44.9433L1.85173 45.1886C1.48617 45.2499 0.572261 45.3726 0.389479 45.0046L0.328552 39.8526C0.328552 39.6686 0.63319 39.4233 0.876899 39.3619Z" fill="black"/>
<path d="M27.1974 33.7191C26.9537 33.6578 26.9537 32.9218 27.0146 32.7378C27.0755 32.5538 27.4411 32.4311 27.6239 32.4311C28.8424 32.3085 30.2438 32.4925 31.4623 32.4311C32.0716 32.6151 32.1325 33.2285 31.706 33.7191H27.1974Z" fill="black"/>
</g>
<defs>
<clipPath id="clip0_29_640">
<rect width="92" height="46" fill="white"/>
</clipPath>
</defs>
</svg>
