<svg width="30" height="37" viewBox="0 0 30 37" fill="none" xmlns="http://www.w3.org/2000/svg">
<mask id="mask0_46_319" style="mask-type:luminance" maskUnits="userSpaceOnUse" x="0" y="0" width="30" height="37">
<path d="M29.7067 0H0V37H29.7067V0Z" fill="white"/>
</mask>
<g mask="url(#mask0_46_319)">
<path d="M24.2812 34.3317C24.2812 32.8642 25.4819 31.7079 26.9939 31.7079C28.5059 31.7079 29.7067 32.8642 29.7067 34.3317C29.7067 35.8437 28.5059 37.0445 26.9939 37.0445C25.4819 37 24.2812 35.7993 24.2812 34.3317Z" fill="black"/>
<path d="M20.7235 30.5517C20.9014 29.5733 20.768 29.6623 19.923 29.5288L7.64901 27.8834L11.2956 2.80168C11.3846 2.3125 11.2067 2.26803 11.0288 2.04567L10.9843 2.0012L10.9399 1.95673L9.5168 0.622597L9.42786 0.75601C9.65021 1.02284 9.78363 1.33414 9.73915 1.60096L5.95911 28.9952L18.6779 30.774C19.2115 30.863 19.5228 31.3522 19.4783 31.7969L18.9892 35.0877C18.9447 35.3101 18.8557 35.5325 18.6779 35.6659L20.012 34.3317C20.1454 34.1983 20.2788 34.0204 20.2788 33.7981L20.7235 30.5517Z" fill="#FFE316"/>
<path d="M18.6779 30.774L5.91463 29.0397L9.69468 1.64544C9.78362 0.756013 9.87257 0.756013 8.8942 0.6226L5.46992 0.133416C4.93627 0.0444743 4.5805 -0.0444682 4.49156 0.444715L0.0444461 32.1971C-0.0444962 33.1755 0.0444461 33.0865 0.844926 33.22L18.0108 35.6214C18.9892 35.7548 18.9447 35.5769 19.0336 34.8209L19.4783 31.7524C19.6117 30.863 19.6117 30.9075 18.6779 30.774Z" fill="#1CA2FF"/>
</g>
</svg>
