<?xml version="1.0" encoding="UTF-8"?>
<svg id="Capa_1" data-name="Capa 1" xmlns="http://www.w3.org/2000/svg" viewBox="0 0 562 351.56">
  <defs>
    <style>
      .cls-1 {
        fill: #fff;
      }
    </style>
  </defs>
  <g>
    <path class="cls-1" d="M200.23,163.21c-19.11,37.78-50.67,56.89-94.3,56.89-30.74,0-56.08-9.94-76-29.49C9.98,171.09,0,145.75,0,114.2S9.98,57.68,29.49,38.16c19.52-19.52,44.04-29.49,73.53-29.49s52.76,9.13,69.78,27.84c17.05,18.7,25.33,43.63,25.33,74.78,0,7.04,0,11.2-.41,13.29H47.35c2.91,36.53,24.52,58.99,58.99,58.99,25.33,0,44.88-13.29,58.58-39.88l35.31,19.52ZM47.79,93.84h104.24c-2.91-32-19.92-49.85-50.26-49.85s-50.26,18.7-53.98,49.85Z"/>
    <path class="cls-1" d="M562,163.21c-19.11,37.78-50.67,56.89-94.3,56.89-30.74,0-56.08-9.94-76-29.49-19.96-19.52-29.93-44.85-29.93-76.41s9.98-56.52,29.49-76.03c19.52-19.52,44.04-29.49,73.53-29.49s52.76,9.13,69.78,27.84c17.05,18.7,25.33,43.63,25.33,74.78,0,7.04,0,11.2-.41,13.29h-150.38c2.91,36.53,24.52,58.99,58.99,58.99,25.33,0,44.88-13.29,58.58-39.88l35.31,19.52ZM409.56,93.84h104.24c-2.91-32-19.92-49.85-50.26-49.85s-50.26,18.7-53.98,49.85Z"/>
    <path class="cls-1" d="M449.39,325.89c0-14.09,11.26-24.98,25.35-24.98s25.67,10.89,25.67,24.98-11.26,25.67-25.67,25.67-25.35-11.6-25.35-25.67Z"/>
  </g>
  <g>
    <path class="cls-1" d="M405.56,336.65h.02s-.01,0-.02,0h0Z"/>
    <path class="cls-1" d="M405.85,336.39l-.27.25c.1-.08.18-.17.27-.25Z"/>
    <path class="cls-1" d="M403.5,292.06l-120.08-16.65L319.21,15.12c1.03-8.36,1.73-8.45-7.42-9.82l-32.35-4.72c-4.98-.7-8.55-1.63-9.18,2.88l-42.43,302.41c-.75,9.33-.11,8.35,7.4,9.82l161.47,22.66c9.02,1.25,8.89-.6,9.82-7.4l4.39-29.06c1.48-8.91,1.48-8.44-7.4-9.84Z"/>
  </g>
</svg>